<svg xmlns="http://www.w3.org/2000/svg" xmlns:xlink="http://www.w3.org/1999/xlink" contentStyleType="text/css"
     data-diagram-type="CLASS" height="475px" preserveAspectRatio="none"
     style="width:528px;height:475px;background:#FFFFFF;" version="1.1" viewBox="0 0 528 475" width="528px"
     zoomAndPan="magnify">
    <defs/>
    <g><!--cluster S6_CSHARP_02-->
        <g id="cluster_S6_CSHARP_02">
            <path d="M8.5,6 L126.7568,6 A3.75,3.75 0 0 1 129.2568,8.5 L136.2568,28.2969 L518.5,28.2969 A2.5,2.5 0 0 1 521,30.7969 L521,465.5 A2.5,2.5 0 0 1 518.5,468 L8.5,468 A2.5,2.5 0 0 1 6,465.5 L6,8.5 A2.5,2.5 0 0 1 8.5,6 "
                  fill="transparent" style="stroke:#000000;stroke-width:1.5;"/>
            <line style="stroke:#000000;stroke-width:1.5;" x1="6" x2="136.2568" y1="28.2969" y2="28.2969"/>
            <text fill="#000000" font-family="sans-serif" font-size="14" font-weight="bold" lengthAdjust="spacing"
                  textLength="117.2568" x="10" y="20.9951">S6_CSHARP_02
            </text>
        </g><!--cluster Interfaces-->
        <g id="cluster_Interfaces">
            <path d="M137.5,49 L218.4326,49 A3.75,3.75 0 0 1 220.9326,51.5 L227.9326,71.2969 L388.5,71.2969 A2.5,2.5 0 0 1 391,73.7969 L391,243.5 A2.5,2.5 0 0 1 388.5,246 L137.5,246 A2.5,2.5 0 0 1 135,243.5 L135,51.5 A2.5,2.5 0 0 1 137.5,49 "
                  fill="transparent" style="stroke:#000000;stroke-width:1.5;"/>
            <line style="stroke:#000000;stroke-width:1.5;" x1="135" x2="227.9326" y1="71.2969" y2="71.2969"/>
            <text fill="#000000" font-family="sans-serif" font-size="14" font-weight="bold" lengthAdjust="spacing"
                  textLength="79.9326" x="139" y="63.9951">Interfaces
            </text>
        </g><!--class Bicycle-->
        <g id="elem_Bicycle">
            <rect codeLine="13" fill="#F1F1F1" height="162.0781" id="Bicycle" rx="2.5" ry="2.5"
                  style="stroke:#181818;stroke-width:0.5;" width="224.3652" x="22" y="290"/>
            <ellipse cx="105.0942" cy="306" fill="#ADD1B2" rx="11" ry="11" style="stroke:#181818;stroke-width:1;"/>
            <path d="M108.063,311.6406 Q107.4849,311.9375 106.8442,312.0781 Q106.2036,312.2344 105.5005,312.2344 Q103.0005,312.2344 101.6724,310.5938 Q100.3599,308.9375 100.3599,305.8125 Q100.3599,302.6875 101.6724,301.0313 Q103.0005,299.375 105.5005,299.375 Q106.2036,299.375 106.8442,299.5313 Q107.5005,299.6875 108.063,299.9844 L108.063,302.7031 Q107.438,302.125 106.8442,301.8594 Q106.2505,301.5781 105.6255,301.5781 Q104.2817,301.5781 103.5942,302.6563 Q102.9067,303.7188 102.9067,305.8125 Q102.9067,307.9063 103.5942,308.9844 Q104.2817,310.0469 105.6255,310.0469 Q106.2505,310.0469 106.8442,309.7813 Q107.438,309.5 108.063,308.9219 L108.063,311.6406 Z "
                  fill="#000000"/>
            <text fill="#000000" font-family="sans-serif" font-size="14" lengthAdjust="spacing" textLength="49.6768"
                  x="125.5942" y="310.8467">Bicycle
            </text>
            <line style="stroke:#181818;stroke-width:0.5;" x1="23" x2="245.3652" y1="322" y2="322"/>
            <ellipse cx="33" cy="335.6484" fill="transparent" rx="3" ry="3" style="stroke:#038048;stroke-width:1;"/>
            <text fill="#000000" font-family="sans-serif" font-size="14" lengthAdjust="spacing" textLength="66.5889"
                  x="42" y="338.9951">int Speed
            </text>
            <ellipse cx="33" cy="351.9453" fill="transparent" rx="3" ry="3" style="stroke:#038048;stroke-width:1;"/>
            <text fill="#000000" font-family="sans-serif" font-size="14" lengthAdjust="spacing" textLength="175.5537"
                  x="42" y="355.292">int NumberOfWheels = 2
            </text>
            <ellipse cx="33" cy="368.2422" fill="transparent" rx="3" ry="3" style="stroke:#038048;stroke-width:1;"/>
            <text fill="#000000" font-family="sans-serif" font-size="14" lengthAdjust="spacing" textLength="81.1904"
                  x="42" y="371.5889">string Color
            </text>
            <line style="stroke:#181818;stroke-width:0.5;" x1="23" x2="245.3652" y1="378.8906" y2="378.8906"/>
            <ellipse cx="33" cy="392.5391" fill="#84BE84" rx="3" ry="3" style="stroke:#038048;stroke-width:1;"/>
            <text fill="#000000" font-family="sans-serif" font-size="14" lengthAdjust="spacing" textLength="139.7129"
                  x="42" y="395.8857">Bicycle(string color)
            </text>
            <ellipse cx="33" cy="408.8359" fill="#84BE84" rx="3" ry="3" style="stroke:#038048;stroke-width:1;"/>
            <text fill="#000000" font-family="sans-serif" font-size="14" lengthAdjust="spacing" textLength="196.2461"
                  x="42" y="412.1826">void Accelerate(int amount)
            </text>
            <ellipse cx="33" cy="425.1328" fill="#84BE84" rx="3" ry="3" style="stroke:#038048;stroke-width:1;"/>
            <text fill="#000000" font-family="sans-serif" font-size="14" lengthAdjust="spacing" textLength="198.3652"
                  x="42" y="428.4795">void Decelerate(int amount)
            </text>
            <ellipse cx="33" cy="441.4297" fill="#84BE84" rx="3" ry="3" style="stroke:#038048;stroke-width:1;"/>
            <text fill="#000000" font-family="sans-serif" font-size="14" lengthAdjust="spacing" textLength="124.4004"
                  x="42" y="444.7764">string GetSpeed()
            </text>
        </g><!--class Car-->
        <g id="elem_Car">
            <rect codeLine="23" fill="#F1F1F1" height="162.0781" id="Car" rx="2.5" ry="2.5"
                  style="stroke:#181818;stroke-width:0.5;" width="224.3652" x="281" y="290"/>
            <ellipse cx="376.8774" cy="306" fill="#ADD1B2" rx="11" ry="11" style="stroke:#181818;stroke-width:1;"/>
            <path d="M379.8462,311.6406 Q379.2681,311.9375 378.6274,312.0781 Q377.9868,312.2344 377.2837,312.2344 Q374.7837,312.2344 373.4556,310.5938 Q372.1431,308.9375 372.1431,305.8125 Q372.1431,302.6875 373.4556,301.0313 Q374.7837,299.375 377.2837,299.375 Q377.9868,299.375 378.6274,299.5313 Q379.2837,299.6875 379.8462,299.9844 L379.8462,302.7031 Q379.2212,302.125 378.6274,301.8594 Q378.0337,301.5781 377.4087,301.5781 Q376.0649,301.5781 375.3774,302.6563 Q374.6899,303.7188 374.6899,305.8125 Q374.6899,307.9063 375.3774,308.9844 Q376.0649,310.0469 377.4087,310.0469 Q378.0337,310.0469 378.6274,309.7813 Q379.2212,309.5 379.8462,308.9219 L379.8462,311.6406 Z "
                  fill="#000000"/>
            <text fill="#000000" font-family="sans-serif" font-size="14" lengthAdjust="spacing" textLength="24.1104"
                  x="397.3774" y="310.8467">Car
            </text>
            <line style="stroke:#181818;stroke-width:0.5;" x1="282" x2="504.3652" y1="322" y2="322"/>
            <ellipse cx="292" cy="335.6484" fill="transparent" rx="3" ry="3" style="stroke:#038048;stroke-width:1;"/>
            <text fill="#000000" font-family="sans-serif" font-size="14" lengthAdjust="spacing" textLength="66.5889"
                  x="301" y="338.9951">int Speed
            </text>
            <ellipse cx="292" cy="351.9453" fill="transparent" rx="3" ry="3" style="stroke:#038048;stroke-width:1;"/>
            <text fill="#000000" font-family="sans-serif" font-size="14" lengthAdjust="spacing" textLength="175.5537"
                  x="301" y="355.292">int NumberOfWheels = 4
            </text>
            <ellipse cx="292" cy="368.2422" fill="transparent" rx="3" ry="3" style="stroke:#038048;stroke-width:1;"/>
            <text fill="#000000" font-family="sans-serif" font-size="14" lengthAdjust="spacing" textLength="81.1904"
                  x="301" y="371.5889">string Color
            </text>
            <line style="stroke:#181818;stroke-width:0.5;" x1="282" x2="504.3652" y1="378.8906" y2="378.8906"/>
            <ellipse cx="292" cy="392.5391" fill="#84BE84" rx="3" ry="3" style="stroke:#038048;stroke-width:1;"/>
            <text fill="#000000" font-family="sans-serif" font-size="14" lengthAdjust="spacing" textLength="114.1465"
                  x="301" y="395.8857">Car(string color)
            </text>
            <ellipse cx="292" cy="408.8359" fill="#84BE84" rx="3" ry="3" style="stroke:#038048;stroke-width:1;"/>
            <text fill="#000000" font-family="sans-serif" font-size="14" lengthAdjust="spacing" textLength="196.2461"
                  x="301" y="412.1826">void Accelerate(int amount)
            </text>
            <ellipse cx="292" cy="425.1328" fill="#84BE84" rx="3" ry="3" style="stroke:#038048;stroke-width:1;"/>
            <text fill="#000000" font-family="sans-serif" font-size="14" lengthAdjust="spacing" textLength="198.3652"
                  x="301" y="428.4795">void Decelerate(int amount)
            </text>
            <ellipse cx="292" cy="441.4297" fill="#84BE84" rx="3" ry="3" style="stroke:#038048;stroke-width:1;"/>
            <text fill="#000000" font-family="sans-serif" font-size="14" lengthAdjust="spacing" textLength="124.4004"
                  x="301" y="444.7764">string GetSpeed()
            </text>
        </g><!--class IVehicle-->
        <g id="elem_IVehicle">
            <rect codeLine="2" fill="#F1F1F1" height="145.7813" id="IVehicle" rx="2.5" ry="2.5"
                  style="stroke:#181818;stroke-width:0.5;" width="224.3652" x="151" y="84"/>
            <ellipse cx="231.2915" cy="100" fill="#B4A7E5" rx="11" ry="11" style="stroke:#181818;stroke-width:1;"/>
            <path d="M227.2134,95.7656 L227.2134,93.6094 L234.604,93.6094 L234.604,95.7656 L232.1353,95.7656 L232.1353,103.8438 L234.604,103.8438 L234.604,106 L227.2134,106 L227.2134,103.8438 L229.6821,103.8438 L229.6821,95.7656 L227.2134,95.7656 Z "
                  fill="#000000"/>
            <text fill="#000000" font-family="sans-serif" font-size="14" font-style="italic" lengthAdjust="spacing"
                  textLength="55.2822" x="251.7915" y="104.8467">IVehicle
            </text>
            <line style="stroke:#181818;stroke-width:0.5;" x1="152" x2="374.3652" y1="116" y2="116"/>
            <ellipse cx="162" cy="129.6484" fill="transparent" rx="3" ry="3" style="stroke:#038048;stroke-width:1;"/>
            <text fill="#000000" font-family="sans-serif" font-size="14" lengthAdjust="spacing" textLength="66.5889"
                  x="171" y="132.9951">int Speed
            </text>
            <ellipse cx="162" cy="145.9453" fill="transparent" rx="3" ry="3" style="stroke:#038048;stroke-width:1;"/>
            <text fill="#000000" font-family="sans-serif" font-size="14" lengthAdjust="spacing" textLength="146.0156"
                  x="171" y="149.292">int NumberOfWheels
            </text>
            <ellipse cx="162" cy="162.2422" fill="transparent" rx="3" ry="3" style="stroke:#038048;stroke-width:1;"/>
            <text fill="#000000" font-family="sans-serif" font-size="14" lengthAdjust="spacing" textLength="81.1904"
                  x="171" y="165.5889">string Color
            </text>
            <line style="stroke:#181818;stroke-width:0.5;" x1="152" x2="374.3652" y1="172.8906" y2="172.8906"/>
            <ellipse cx="162" cy="186.5391" fill="#84BE84" rx="3" ry="3" style="stroke:#038048;stroke-width:1;"/>
            <text fill="#000000" font-family="sans-serif" font-size="14" lengthAdjust="spacing" textLength="196.2461"
                  x="171" y="189.8857">void Accelerate(int amount)
            </text>
            <ellipse cx="162" cy="202.8359" fill="#84BE84" rx="3" ry="3" style="stroke:#038048;stroke-width:1;"/>
            <text fill="#000000" font-family="sans-serif" font-size="14" lengthAdjust="spacing" textLength="198.3652"
                  x="171" y="206.1826">void Decelerate(int amount)
            </text>
            <ellipse cx="162" cy="219.1328" fill="#84BE84" rx="3" ry="3" style="stroke:#038048;stroke-width:1;"/>
            <text fill="#000000" font-family="sans-serif" font-size="14" lengthAdjust="spacing" textLength="124.4004"
                  x="171" y="222.4795">string GetSpeed()
            </text>
        </g><!--reverse link IVehicle to Bicycle-->
        <g id="link_IVehicle_Bicycle">
            <path codeLine="34" d="M209.7927,245.4467 C198.1027,264.6567 194.76,270.14 182.83,289.76 "
                  fill="transparent" id="IVehicle-backto-Bicycle"
                  style="stroke:#181818;stroke-width:1;stroke-dasharray:7.0,7.0;"/>
            <polygon fill="transparent" points="219.15,230.07,204.6672,242.3276,214.9183,248.5657,219.15,230.07"
                     style="stroke:#181818;stroke-width:1;"/>
        </g><!--reverse link IVehicle to Car-->
        <g id="link_IVehicle_Car">
            <path codeLine="35" d="M316.5997,245.4146 C328.3797,264.6246 331.77,270.14 343.79,289.76 "
                  fill="transparent" id="IVehicle-backto-Car"
                  style="stroke:#181818;stroke-width:1;stroke-dasharray:7.0,7.0;"/>
            <polygon fill="transparent" points="307.19,230.07,311.4848,248.5512,321.7146,242.2781,307.19,230.07"
                     style="stroke:#181818;stroke-width:1;"/>
        </g><!--SRC=[nPAn2i8m54NtViKRMuGY8auwQ0Njec91nnBZKmDfMf9K4Es_csfgLKJ1GTzup-EIaqIG15L6A4BKYODet9_FucRB3uL6kJ6nWgC3PbWLGBZ07QCSBIYdOIX46UBwCPhaoGhbTBFS8N9LCwKb4ri8KfxAEjsdR0rzIf6Z91hTie4aQIwqzxGqnFTBjd-4-d8ezueAft0SyTBNkb1Eb881euTl_A07hK-Ejjkrb9RK- -KLt7a6H7xZsFxaQ7h_vsSCRn-qU_BzwZMVKdF6Cm00]-->
    </g>
</svg>