<svg xmlns="http://www.w3.org/2000/svg" xmlns:xlink="http://www.w3.org/1999/xlink" contentStyleType="text/css" data-diagram-type="CLASS" height="507px" preserveAspectRatio="none" style="width:707px;height:507px;background:#FFFFFF;" version="1.1" viewBox="0 0 707 507" width="707px" zoomAndPan="magnify"><defs/><g><!--cluster S6_CSHARP_02--><g id="cluster_S6_CSHARP_02"><path d="M8.5,6 L126.7568,6 A3.75,3.75 0 0 1 129.2568,8.5 L136.2568,28.2969 L697.5,28.2969 A2.5,2.5 0 0 1 700,30.7969 L700,497.5 A2.5,2.5 0 0 1 697.5,500 L8.5,500 A2.5,2.5 0 0 1 6,497.5 L6,8.5 A2.5,2.5 0 0 1 8.5,6 " fill="transparent" style="stroke:#000000;stroke-width:1.5;"/><line style="stroke:#000000;stroke-width:1.5;" x1="6" x2="136.2568" y1="28.2969" y2="28.2969"/><text fill="#000000" font-family="sans-serif" font-size="14" font-weight="bold" lengthAdjust="spacing" textLength="117.2568" x="10" y="20.9951">S6_CSHARP_02</text></g><!--cluster Interfaces--><g id="cluster_Interfaces"><path d="M186.5,49 L267.4326,49 A3.75,3.75 0 0 1 269.9326,51.5 L276.9326,71.2969 L519.5,71.2969 A2.5,2.5 0 0 1 522,73.7969 L522,259.5 A2.5,2.5 0 0 1 519.5,262 L186.5,262 A2.5,2.5 0 0 1 184,259.5 L184,51.5 A2.5,2.5 0 0 1 186.5,49 " fill="transparent" style="stroke:#000000;stroke-width:1.5;"/><line style="stroke:#000000;stroke-width:1.5;" x1="184" x2="276.9326" y1="71.2969" y2="71.2969"/><text fill="#000000" font-family="sans-serif" font-size="14" font-weight="bold" lengthAdjust="spacing" textLength="79.9326" x="188" y="63.9951">Interfaces</text></g><!--class Dog--><g id="elem_Dog"><rect codeLine="14" fill="#F1F1F1" height="178.375" id="Dog" rx="2.5" ry="2.5" style="stroke:#181818;stroke-width:0.5;" width="315.4473" x="22.5" y="306"/><ellipse cx="161.8574" cy="322" fill="#ADD1B2" rx="11" ry="11" style="stroke:#181818;stroke-width:1;"/><path d="M164.8262,327.6406 Q164.248,327.9375 163.6074,328.0781 Q162.9668,328.2344 162.2637,328.2344 Q159.7637,328.2344 158.4355,326.5938 Q157.123,324.9375 157.123,321.8125 Q157.123,318.6875 158.4355,317.0313 Q159.7637,315.375 162.2637,315.375 Q162.9668,315.375 163.6074,315.5313 Q164.2637,315.6875 164.8262,315.9844 L164.8262,318.7031 Q164.2012,318.125 163.6074,317.8594 Q163.0137,317.5781 162.3887,317.5781 Q161.0449,317.5781 160.3574,318.6563 Q159.6699,319.7188 159.6699,321.8125 Q159.6699,323.9063 160.3574,324.9844 Q161.0449,326.0469 162.3887,326.0469 Q163.0137,326.0469 163.6074,325.7813 Q164.2012,325.5 164.8262,324.9219 L164.8262,327.6406 Z " fill="#000000"/><text fill="#000000" font-family="sans-serif" font-size="14" lengthAdjust="spacing" textLength="28.2324" x="182.3574" y="326.8467">Dog</text><line style="stroke:#181818;stroke-width:0.5;" x1="23.5" x2="336.9473" y1="338" y2="338"/><ellipse cx="33.5" cy="351.6484" fill="transparent" rx="3" ry="3" style="stroke:#038048;stroke-width:1;"/><text fill="#000000" font-family="sans-serif" font-size="14" lengthAdjust="spacing" textLength="85.9414" x="42.5" y="354.9951">string Name</text><ellipse cx="33.5" cy="367.9453" fill="transparent" rx="3" ry="3" style="stroke:#038048;stroke-width:1;"/><text fill="#000000" font-family="sans-serif" font-size="14" lengthAdjust="spacing" textLength="101.7598" x="42.5" y="371.292">double Weight</text><ellipse cx="33.5" cy="384.2422" fill="transparent" rx="3" ry="3" style="stroke:#038048;stroke-width:1;"/><text fill="#000000" font-family="sans-serif" font-size="14" lengthAdjust="spacing" textLength="49.7793" x="42.5" y="387.5889">int Age</text><line style="stroke:#181818;stroke-width:0.5;" x1="23.5" x2="336.9473" y1="394.8906" y2="394.8906"/><ellipse cx="33.5" cy="408.5391" fill="#84BE84" rx="3" ry="3" style="stroke:#038048;stroke-width:1;"/><text fill="#000000" font-family="sans-serif" font-size="14" lengthAdjust="spacing" textLength="289.4473" x="42.5" y="411.8857">Dog(string name, double weight, int age)</text><ellipse cx="33.5" cy="424.8359" fill="#84BE84" rx="3" ry="3" style="stroke:#038048;stroke-width:1;"/><text fill="#000000" font-family="sans-serif" font-size="14" lengthAdjust="spacing" textLength="254.7822" x="42.5" y="428.1826">void ChangeName(string newName)</text><ellipse cx="33.5" cy="441.1328" fill="#84BE84" rx="3" ry="3" style="stroke:#038048;stroke-width:1;"/><text fill="#000000" font-family="sans-serif" font-size="14" lengthAdjust="spacing" textLength="278.8926" x="42.5" y="444.4795">void ChangeWeight(double newWeight)</text><ellipse cx="33.5" cy="457.4297" fill="#84BE84" rx="3" ry="3" style="stroke:#038048;stroke-width:1;"/><text fill="#000000" font-family="sans-serif" font-size="14" lengthAdjust="spacing" textLength="204.3945" x="42.5" y="460.7764">void ChangeAge(int newAge)</text><ellipse cx="33.5" cy="473.7266" fill="#84BE84" rx="3" ry="3" style="stroke:#038048;stroke-width:1;"/><text fill="#000000" font-family="sans-serif" font-size="14" lengthAdjust="spacing" textLength="155.4561" x="42.5" y="477.0732">string GetAnimalInfo()</text></g><!--class Cat--><g id="elem_Cat"><rect codeLine="25" fill="#F1F1F1" height="178.375" id="Cat" rx="2.5" ry="2.5" style="stroke:#181818;stroke-width:0.5;" width="311.0586" x="372.5" y="306"/><ellipse cx="511.8574" cy="322" fill="#ADD1B2" rx="11" ry="11" style="stroke:#181818;stroke-width:1;"/><path d="M514.8262,327.6406 Q514.248,327.9375 513.6074,328.0781 Q512.9668,328.2344 512.2637,328.2344 Q509.7637,328.2344 508.4355,326.5938 Q507.123,324.9375 507.123,321.8125 Q507.123,318.6875 508.4355,317.0313 Q509.7637,315.375 512.2637,315.375 Q512.9668,315.375 513.6074,315.5313 Q514.2637,315.6875 514.8262,315.9844 L514.8262,318.7031 Q514.2012,318.125 513.6074,317.8594 Q513.0137,317.5781 512.3887,317.5781 Q511.0449,317.5781 510.3574,318.6563 Q509.6699,319.7188 509.6699,321.8125 Q509.6699,323.9063 510.3574,324.9844 Q511.0449,326.0469 512.3887,326.0469 Q513.0137,326.0469 513.6074,325.7813 Q514.2012,325.5 514.8262,324.9219 L514.8262,327.6406 Z " fill="#000000"/><text fill="#000000" font-family="sans-serif" font-size="14" lengthAdjust="spacing" textLength="23.8438" x="532.3574" y="326.8467">Cat</text><line style="stroke:#181818;stroke-width:0.5;" x1="373.5" x2="682.5586" y1="338" y2="338"/><ellipse cx="383.5" cy="351.6484" fill="transparent" rx="3" ry="3" style="stroke:#038048;stroke-width:1;"/><text fill="#000000" font-family="sans-serif" font-size="14" lengthAdjust="spacing" textLength="85.9414" x="392.5" y="354.9951">string Name</text><ellipse cx="383.5" cy="367.9453" fill="transparent" rx="3" ry="3" style="stroke:#038048;stroke-width:1;"/><text fill="#000000" font-family="sans-serif" font-size="14" lengthAdjust="spacing" textLength="101.7598" x="392.5" y="371.292">double Weight</text><ellipse cx="383.5" cy="384.2422" fill="transparent" rx="3" ry="3" style="stroke:#038048;stroke-width:1;"/><text fill="#000000" font-family="sans-serif" font-size="14" lengthAdjust="spacing" textLength="49.7793" x="392.5" y="387.5889">int Age</text><line style="stroke:#181818;stroke-width:0.5;" x1="373.5" x2="682.5586" y1="394.8906" y2="394.8906"/><ellipse cx="383.5" cy="408.5391" fill="#84BE84" rx="3" ry="3" style="stroke:#038048;stroke-width:1;"/><text fill="#000000" font-family="sans-serif" font-size="14" lengthAdjust="spacing" textLength="285.0586" x="392.5" y="411.8857">Cat(string name, double weight, int age)</text><ellipse cx="383.5" cy="424.8359" fill="#84BE84" rx="3" ry="3" style="stroke:#038048;stroke-width:1;"/><text fill="#000000" font-family="sans-serif" font-size="14" lengthAdjust="spacing" textLength="254.7822" x="392.5" y="428.1826">void ChangeName(string newName)</text><ellipse cx="383.5" cy="441.1328" fill="#84BE84" rx="3" ry="3" style="stroke:#038048;stroke-width:1;"/><text fill="#000000" font-family="sans-serif" font-size="14" lengthAdjust="spacing" textLength="278.8926" x="392.5" y="444.4795">void ChangeWeight(double newWeight)</text><ellipse cx="383.5" cy="457.4297" fill="#84BE84" rx="3" ry="3" style="stroke:#038048;stroke-width:1;"/><text fill="#000000" font-family="sans-serif" font-size="14" lengthAdjust="spacing" textLength="204.3945" x="392.5" y="460.7764">void ChangeAge(int newAge)</text><ellipse cx="383.5" cy="473.7266" fill="#84BE84" rx="3" ry="3" style="stroke:#038048;stroke-width:1;"/><text fill="#000000" font-family="sans-serif" font-size="14" lengthAdjust="spacing" textLength="155.4561" x="392.5" y="477.0732">string GetAnimalInfo()</text></g><!--class IAnimal--><g id="elem_IAnimal"><rect codeLine="2" fill="#F1F1F1" height="162.0781" id="IAnimal" rx="2.5" ry="2.5" style="stroke:#181818;stroke-width:0.5;" width="304.8926" x="200.5" y="84"/><ellipse cx="322.4087" cy="100" fill="#B4A7E5" rx="11" ry="11" style="stroke:#181818;stroke-width:1;"/><path d="M318.3306,95.7656 L318.3306,93.6094 L325.7212,93.6094 L325.7212,95.7656 L323.2524,95.7656 L323.2524,103.8438 L325.7212,103.8438 L325.7212,106 L318.3306,106 L318.3306,103.8438 L320.7993,103.8438 L320.7993,95.7656 L318.3306,95.7656 Z " fill="#000000"/><text fill="#000000" font-family="sans-serif" font-size="14" font-style="italic" lengthAdjust="spacing" textLength="52.5752" x="342.9087" y="104.8467">IAnimal</text><line style="stroke:#181818;stroke-width:0.5;" x1="201.5" x2="504.3926" y1="116" y2="116"/><ellipse cx="211.5" cy="129.6484" fill="transparent" rx="3" ry="3" style="stroke:#038048;stroke-width:1;"/><text fill="#000000" font-family="sans-serif" font-size="14" lengthAdjust="spacing" textLength="85.9414" x="220.5" y="132.9951">string Name</text><ellipse cx="211.5" cy="145.9453" fill="transparent" rx="3" ry="3" style="stroke:#038048;stroke-width:1;"/><text fill="#000000" font-family="sans-serif" font-size="14" lengthAdjust="spacing" textLength="101.7598" x="220.5" y="149.292">double Weight</text><ellipse cx="211.5" cy="162.2422" fill="transparent" rx="3" ry="3" style="stroke:#038048;stroke-width:1;"/><text fill="#000000" font-family="sans-serif" font-size="14" lengthAdjust="spacing" textLength="49.7793" x="220.5" y="165.5889">int Age</text><line style="stroke:#181818;stroke-width:0.5;" x1="201.5" x2="504.3926" y1="172.8906" y2="172.8906"/><ellipse cx="211.5" cy="186.5391" fill="#84BE84" rx="3" ry="3" style="stroke:#038048;stroke-width:1;"/><text fill="#000000" font-family="sans-serif" font-size="14" lengthAdjust="spacing" textLength="254.7822" x="220.5" y="189.8857">void ChangeName(string newName)</text><ellipse cx="211.5" cy="202.8359" fill="#84BE84" rx="3" ry="3" style="stroke:#038048;stroke-width:1;"/><text fill="#000000" font-family="sans-serif" font-size="14" lengthAdjust="spacing" textLength="278.8926" x="220.5" y="206.1826">void ChangeWeight(double newWeight)</text><ellipse cx="211.5" cy="219.1328" fill="#84BE84" rx="3" ry="3" style="stroke:#038048;stroke-width:1;"/><text fill="#000000" font-family="sans-serif" font-size="14" lengthAdjust="spacing" textLength="204.3945" x="220.5" y="222.4795">void ChangeAge(int newAge)</text><ellipse cx="211.5" cy="235.4297" fill="#84BE84" rx="3" ry="3" style="stroke:#038048;stroke-width:1;"/><text fill="#000000" font-family="sans-serif" font-size="14" lengthAdjust="spacing" textLength="155.4561" x="220.5" y="238.7764">string GetAnimalInfo()</text></g><!--reverse link IAnimal to Dog--><g id="link_IAnimal_Dog"><path codeLine="37" d="M281.372,260.4012 C266.672,279.7812 261.76,286.25 246.79,305.97 " fill="transparent" id="IAnimal-backto-Dog" style="stroke:#181818;stroke-width:1;stroke-dasharray:7.0,7.0;"/><polygon fill="transparent" points="292.25,246.06,276.5916,256.7752,286.1524,264.0272,292.25,246.06" style="stroke:#181818;stroke-width:1;"/></g><!--reverse link IAnimal to Cat--><g id="link_IAnimal_Cat"><path codeLine="38" d="M425.4073,260.3406 C440.2773,279.7206 445.3,286.25 460.43,305.97 " fill="transparent" id="IAnimal-backto-Cat" style="stroke:#181818;stroke-width:1;stroke-dasharray:7.0,7.0;"/><polygon fill="transparent" points="414.45,246.06,420.6471,263.9931,430.1676,256.6882,414.45,246.06" style="stroke:#181818;stroke-width:1;"/></g><!--SRC=[tLEn3e8m5DpvYZT29CGuEBaGJ9J561aSIOLQcq1hQ9L1-NTVfOX6t1oCdThhlNkzQoj8ITMHP1IIQHebot2pJiUJ81QQLdk45LmSmC4x0E9Gy98K5ZTZf7J51OCLQlLWBa-xWiAMSdRGFOn24B8dtbdo7A834OmQ0TUA2LgRfJT8R4LTsmAfBJ1CncwkwOeqd7flnrvGtLgAnLwwxNxZD8uZ1hEnnhE2A0LpoRuM16ezpAE03xQmlXVwvWg0i0-9_59qJ_b4H7yj7zJwZtmmeUuJpQv1O1xHAu1ERm00]--></g></svg>