<svg xmlns="http://www.w3.org/2000/svg" contentStyleType="text/css" data-diagram-type="CLASS" height="302px"
     preserveAspectRatio="none" style="width:567px;height:302px;background:#FFFFFF;" version="1.1" viewBox="0 0 567 302"
     width="567px" zoomAndPan="magnify"><defs/><g><!--cluster S6_CSHARP_03_Lib--><g id="cluster_S6_CSHARP_03_Lib"><path d="M8.5,6 L157.498,6 A3.75,3.75 0 0 1 159.998,8.5 L166.998,28.2969 L557.5,28.2969 A2.5,2.5 0 0 1 560,30.7969 L560,292.5 A2.5,2.5 0 0 1 557.5,295 L8.5,295 A2.5,2.5 0 0 1 6,292.5 L6,8.5 A2.5,2.5 0 0 1 8.5,6 " fill="transparent" style="stroke:#000000;stroke-width:1.5;"/><line style="stroke:#000000;stroke-width:1.5;" x1="6" x2="166.998" y1="28.2969" y2="28.2969"/><text fill="#000000" font-family="sans-serif" font-size="14" font-weight="bold" lengthAdjust="spacing" textLength="147.998" x="10" y="20.9951">S6_CSHARP_03_Lib</text></g><!--class Dier--><g id="elem_Dier"><rect codeLine="3" fill="#F1F1F1" height="96.8906" id="Dier" rx="2.5" ry="2.5" style="stroke:#181818;stroke-width:0.5;" width="143.5645" x="205" y="41"/><ellipse cx="258.0127" cy="57" fill="#A9DCDF" rx="11" ry="11" style="stroke:#181818;stroke-width:1;"/><path d="M258.1221,52.3438 L256.9658,57.4219 L259.2939,57.4219 L258.1221,52.3438 Z M256.6377,50.1094 L259.6221,50.1094 L262.9814,62.5 L260.5283,62.5 L259.7627,59.4375 L256.4814,59.4375 L255.7314,62.5 L253.2939,62.5 L256.6377,50.1094 Z " fill="#000000"/><text fill="#000000" font-family="sans-serif" font-size="14" font-style="italic" lengthAdjust="spacing" textLength="29.0391" x="278.5127" y="61.8467">Dier</text><line style="stroke:#181818;stroke-width:0.5;" x1="206" x2="347.5645" y1="73" y2="73"/><ellipse cx="216" cy="86.6484" fill="transparent" rx="3" ry="3" style="stroke:#038048;stroke-width:1;"/><text fill="#000000" font-family="sans-serif" font-size="14" lengthAdjust="spacing" textLength="79.5635" x="225" y="89.9951">int Gewicht</text><line style="stroke:#181818;stroke-width:0.5;" x1="206" x2="347.5645" y1="97.2969" y2="97.2969"/><ellipse cx="216" cy="110.9453" fill="#84BE84" rx="3" ry="3" style="stroke:#038048;stroke-width:1;"/><text fill="#000000" font-family="sans-serif" font-size="14" lengthAdjust="spacing" textLength="117.5645" x="225" y="114.292">Dier(int gewicht)</text><ellipse cx="216" cy="127.2422" fill="#84BE84" rx="3" ry="3" style="stroke:#038048;stroke-width:1;"/><text fill="#000000" font-family="sans-serif" font-size="14" lengthAdjust="spacing" textLength="90.002" x="225" y="130.5889">void Geluid()</text></g><!--class Hond--><g id="elem_Hond"><rect codeLine="9" fill="#F1F1F1" height="80.5938" id="Hond" rx="2.5" ry="2.5" style="stroke:#181818;stroke-width:0.5;" width="151.3779" x="22.5" y="198"/><ellipse cx="75.5127" cy="214" fill="#ADD1B2" rx="11" ry="11" style="stroke:#181818;stroke-width:1;"/><path d="M78.4814,219.6406 Q77.9033,219.9375 77.2627,220.0781 Q76.6221,220.2344 75.9189,220.2344 Q73.4189,220.2344 72.0908,218.5938 Q70.7783,216.9375 70.7783,213.8125 Q70.7783,210.6875 72.0908,209.0313 Q73.4189,207.375 75.9189,207.375 Q76.6221,207.375 77.2627,207.5313 Q77.9189,207.6875 78.4814,207.9844 L78.4814,210.7031 Q77.8564,210.125 77.2627,209.8594 Q76.6689,209.5781 76.0439,209.5781 Q74.7002,209.5781 74.0127,210.6563 Q73.3252,211.7188 73.3252,213.8125 Q73.3252,215.9063 74.0127,216.9844 Q74.7002,218.0469 76.0439,218.0469 Q76.6689,218.0469 77.2627,217.7813 Q77.8564,217.5 78.4814,216.9219 L78.4814,219.6406 Z " fill="#000000"/><text fill="#000000" font-family="sans-serif" font-size="14" lengthAdjust="spacing" textLength="36.8525" x="96.0127" y="218.8467">Hond</text><line style="stroke:#181818;stroke-width:0.5;" x1="23.5" x2="172.8779" y1="230" y2="230"/><line style="stroke:#181818;stroke-width:0.5;" x1="23.5" x2="172.8779" y1="238" y2="238"/><ellipse cx="33.5" cy="251.6484" fill="#84BE84" rx="3" ry="3" style="stroke:#038048;stroke-width:1;"/><text fill="#000000" font-family="sans-serif" font-size="14" lengthAdjust="spacing" textLength="125.3779" x="42.5" y="254.9951">Hond(int gewicht)</text><ellipse cx="33.5" cy="267.9453" fill="#84BE84" rx="3" ry="3" style="stroke:#038048;stroke-width:1;"/><text fill="#000000" font-family="sans-serif" font-size="14" lengthAdjust="spacing" textLength="90.002" x="42.5" y="271.292">void Geluid()</text></g><!--class Kip--><g id="elem_Kip"><rect codeLine="14" fill="#F1F1F1" height="80.5938" id="Kip" rx="2.5" ry="2.5" style="stroke:#181818;stroke-width:0.5;" width="136.4824" x="209" y="198"/><ellipse cx="262.0127" cy="214" fill="#ADD1B2" rx="11" ry="11" style="stroke:#181818;stroke-width:1;"/><path d="M264.9814,219.6406 Q264.4033,219.9375 263.7627,220.0781 Q263.1221,220.2344 262.4189,220.2344 Q259.9189,220.2344 258.5908,218.5938 Q257.2783,216.9375 257.2783,213.8125 Q257.2783,210.6875 258.5908,209.0313 Q259.9189,207.375 262.4189,207.375 Q263.1221,207.375 263.7627,207.5313 Q264.4189,207.6875 264.9814,207.9844 L264.9814,210.7031 Q264.3564,210.125 263.7627,209.8594 Q263.1689,209.5781 262.5439,209.5781 Q261.2002,209.5781 260.5127,210.6563 Q259.8252,211.7188 259.8252,213.8125 Q259.8252,215.9063 260.5127,216.9844 Q261.2002,218.0469 262.5439,218.0469 Q263.1689,218.0469 263.7627,217.7813 Q264.3564,217.5 264.9814,216.9219 L264.9814,219.6406 Z " fill="#000000"/><text fill="#000000" font-family="sans-serif" font-size="14" lengthAdjust="spacing" textLength="21.957" x="282.5127" y="218.8467">Kip</text><line style="stroke:#181818;stroke-width:0.5;" x1="210" x2="344.4824" y1="230" y2="230"/><line style="stroke:#181818;stroke-width:0.5;" x1="210" x2="344.4824" y1="238" y2="238"/><ellipse cx="220" cy="251.6484" fill="#84BE84" rx="3" ry="3" style="stroke:#038048;stroke-width:1;"/><text fill="#000000" font-family="sans-serif" font-size="14" lengthAdjust="spacing" textLength="110.4824" x="229" y="254.9951">Kip(int gewicht)</text><ellipse cx="220" cy="267.9453" fill="#84BE84" rx="3" ry="3" style="stroke:#038048;stroke-width:1;"/><text fill="#000000" font-family="sans-serif" font-size="14" lengthAdjust="spacing" textLength="90.002" x="229" y="271.292">void Geluid()</text></g><!--class Varken--><g id="elem_Varken"><rect codeLine="19" fill="#F1F1F1" height="80.5938" id="Varken" rx="2.5" ry="2.5" style="stroke:#181818;stroke-width:0.5;" width="164.0313" x="380" y="198"/><ellipse cx="433.0127" cy="214" fill="#ADD1B2" rx="11" ry="11" style="stroke:#181818;stroke-width:1;"/><path d="M435.9814,219.6406 Q435.4033,219.9375 434.7627,220.0781 Q434.1221,220.2344 433.4189,220.2344 Q430.9189,220.2344 429.5908,218.5938 Q428.2783,216.9375 428.2783,213.8125 Q428.2783,210.6875 429.5908,209.0313 Q430.9189,207.375 433.4189,207.375 Q434.1221,207.375 434.7627,207.5313 Q435.4189,207.6875 435.9814,207.9844 L435.9814,210.7031 Q435.3564,210.125 434.7627,209.8594 Q434.1689,209.5781 433.5439,209.5781 Q432.2002,209.5781 431.5127,210.6563 Q430.8252,211.7188 430.8252,213.8125 Q430.8252,215.9063 431.5127,216.9844 Q432.2002,218.0469 433.5439,218.0469 Q434.1689,218.0469 434.7627,217.7813 Q435.3564,217.5 435.9814,216.9219 L435.9814,219.6406 Z " fill="#000000"/><text fill="#000000" font-family="sans-serif" font-size="14" lengthAdjust="spacing" textLength="49.5059" x="453.5127" y="218.8467">Varken</text><line style="stroke:#181818;stroke-width:0.5;" x1="381" x2="543.0313" y1="230" y2="230"/><line style="stroke:#181818;stroke-width:0.5;" x1="381" x2="543.0313" y1="238" y2="238"/><ellipse cx="391" cy="251.6484" fill="#84BE84" rx="3" ry="3" style="stroke:#038048;stroke-width:1;"/><text fill="#000000" font-family="sans-serif" font-size="14" lengthAdjust="spacing" textLength="138.0313" x="400" y="254.9951">Varken(int gewicht)</text><ellipse cx="391" cy="267.9453" fill="#84BE84" rx="3" ry="3" style="stroke:#038048;stroke-width:1;"/><text fill="#000000" font-family="sans-serif" font-size="14" lengthAdjust="spacing" textLength="90.002" x="400" y="271.292">void Geluid()</text></g><!--reverse link Dier to Hond--><g id="link_Dier_Hond"><path codeLine="26" d="M204.9689,149.6528 C181.4889,168.9328 168.63,179.5 146.25,197.88 " fill="transparent" id="Dier-backto-Hond" style="stroke:#181818;stroke-width:1;"/><polygon fill="transparent" points="218.88,138.23,201.1613,145.0157,208.7764,154.2898,218.88,138.23" style="stroke:#181818;stroke-width:1;"/></g><!--reverse link Dier to Kip--><g id="link_Dier_Kip"><path codeLine="27" d="M277,156.23 C277,175.51 277,179.5 277,197.88 " fill="transparent" id="Dier-backto-Kip" style="stroke:#181818;stroke-width:1;"/><polygon fill="transparent" points="277,138.23,271,156.23,283,156.23,277,138.23" style="stroke:#181818;stroke-width:1;"/></g><!--reverse link Dier to Varken--><g id="link_Dier_Varken"><path codeLine="28" d="M350.9007,149.2206 C375.1807,168.5206 388.82,179.35 412,197.77 " fill="transparent" id="Dier-backto-Varken" style="stroke:#181818;stroke-width:1;"/><polygon fill="transparent" points="336.81,138.02,347.1671,153.9175,354.6342,144.5237,336.81,138.02" style="stroke:#181818;stroke-width:1;"/></g><!--SRC=[oqlCJIqkI4nELGWsYtSEzd0C2eWtC8xtoKnIgERYKW22nAJYagB4v1A5v9p4uc85bypK8g2K0XHeP-QLABYdbcScPvGW146AD40owH0PJOHKMNvc2b13JcbcYWP4k1PY3yHuZ_oy56JZGNpoJFBEB40s2CWbpvomnABir3naeo0Yf9W6HE1miwdHrGLx4OaBT1WI3s8s0000]--></g></svg>